# Blender v2.77 (sub 0) OBJ File: 'head.blend'
# www.blender.org
mtllib head.mtl
o Cube_Cube.000
v 2.790561 -7.544548 -4.866570
v 2.827161 -8.020675 -2.747738
v 3.185861 9.256941 -5.739736
v 3.012210 8.929667 -8.176198
v 3.016712 8.673637 -3.224422
v 7.596063 3.115498 -5.718265
v 6.988870 3.219766 -8.277206
v 7.235897 5.299810 -5.741335
v 7.190759 2.942040 -3.101944
v 7.092699 -1.676683 -5.686908
v 6.579807 -1.205441 -8.026021
v 6.678270 5.296540 -8.179261
v 6.824531 5.039905 -3.224011
v 6.860103 -2.246808 -3.135870
v 3.133102 2.126328 0.156858
v 2.980952 -4.615162 -0.105307
v 3.006630 4.849545 -0.247143
v 3.060718 3.339897 -11.563479
v 2.968974 5.409979 -11.206729
v 2.863196 -1.151698 -10.953752
v 5.747234 -3.379472 -7.818107
v 5.585496 -4.750165 -5.678543
v 5.204158 -6.069056 -3.153105
v 2.565004 -3.255406 -10.331184
v 5.138759 -0.992559 -9.880812
v 5.505031 3.276053 -10.348066
v 5.299827 5.179221 -10.103758
v 2.674150 -7.606243 -0.824458
v 5.645175 -3.134952 -1.163617
v 5.813977 2.637862 -1.103744
v 5.481191 4.764783 -1.365134
v 5.446351 7.537937 -8.039080
v 5.832576 7.719499 -5.769265
v 5.494660 7.268260 -3.396328
v 2.783698 7.616132 -10.099318
v 2.792241 7.230912 -1.362502
v 4.523804 -3.087564 -9.411318
v 4.538815 -6.307697 -1.478560
v 4.727404 6.940582 -9.579636
v 4.799159 6.568245 -1.892110
v 5.233635 -12.924726 -5.343574
v 8.447570 -9.831754 -10.303892
v 8.099943 -11.223207 -7.557222
v 4.031115 -10.714761 -14.050143
v 7.178391 -9.798296 -12.992985
v 4.918047 -7.507833 -6.923888
v 5.989617 -9.304322 -7.309585
v 6.007994 -8.156470 -9.440339
v 5.048732 -6.536283 -8.665913
v 3.880052 -6.342909 -10.594780
v 4.704441 -8.106187 -11.819349
v 1.958870 -6.571222 -11.754363
v 2.462027 -8.599752 -13.252866
v 2.545208 -9.599010 -5.513808
v 3.271340 -11.391154 -5.420567
v 8.038984 -13.795981 -4.960042
v 12.149671 -11.154077 -10.494159
v 11.807947 -12.577400 -7.318794
v 6.699121 -11.675762 -14.187913
v 10.877697 -10.837737 -13.182877
v 6.859812 1.034805 -8.195785
v 7.512585 0.818633 -5.695439
v 7.254307 0.590390 -3.124791
v 3.131326 -0.962226 0.163682
v 2.945620 1.103492 -11.396973
v 5.349426 1.169518 -10.217991
v 5.945545 0.012307 -1.101020
v 4.930102 -4.899202 -8.096854
v 4.746975 -6.091282 -6.474020
v 3.954739 -4.540033 -9.693882
v 2.189309 -4.729792 -10.687488
v 2.491005 -8.263829 -5.383615
v -0.064152 -8.505559 -4.579356
v -2.918865 -7.544548 -4.866570
v -0.064152 -8.725475 -2.510818
v -2.955465 -8.020675 -2.747738
v -0.064152 9.764341 -5.710562
v -0.064152 9.399594 -8.275803
v -0.064152 9.159087 -3.110967
v -3.314165 9.256941 -5.739736
v -3.140514 8.929667 -8.176198
v -3.145016 8.673637 -3.224422
v -7.724367 3.115498 -5.718265
v -7.117175 3.219766 -8.277206
v -7.364202 5.299810 -5.741335
v -7.319064 2.942040 -3.101944
v -7.221003 -1.676683 -5.686908
v -6.708112 -1.205441 -8.026021
v -6.806574 5.296540 -8.179261
v -6.952836 5.039905 -3.224011
v -6.988407 -2.246808 -3.135870
v -0.064152 1.658453 0.584135
v -3.261406 2.126328 0.156858
v -0.064152 4.844005 0.130906
v -0.064152 -4.977974 0.152484
v -3.109256 -4.615162 -0.105307
v -3.134934 4.849545 -0.247143
v -0.064152 3.380983 -11.972658
v -3.189022 3.339897 -11.563479
v -0.064152 -1.366649 -11.270123
v -0.064152 5.615550 -11.576409
v -3.097278 5.409979 -11.206729
v -2.991500 -1.151698 -10.953752
v -5.875538 -3.379472 -7.818107
v -5.713801 -4.750165 -5.678543
v -5.332463 -6.069056 -3.153105
v -2.693308 -3.255406 -10.331184
v -0.064152 -3.502896 -10.577255
v -5.267063 -0.992559 -9.880812
v -5.633336 3.276053 -10.348066
v -5.428131 5.179221 -10.103758
v -2.802454 -7.606243 -0.824458
v -0.064152 -7.920941 -0.554928
v -5.773479 -3.134952 -1.163617
v -5.942281 2.637862 -1.103744
v -5.609495 4.764783 -1.365134
v -5.574656 7.537937 -8.039080
v -5.960880 7.719499 -5.769265
v -5.622964 7.268260 -3.396328
v -2.912002 7.616132 -10.099318
v -0.064152 7.940088 -10.346603
v -2.920545 7.230912 -1.362502
v -0.064152 7.548106 -1.105654
v -4.652109 -3.087564 -9.411318
v -4.667119 -6.307697 -1.478560
v -4.855708 6.940582 -9.579636
v -4.927464 6.568245 -1.892110
v -0.064152 -13.538067 -3.935394
v -5.361940 -12.924726 -5.343574
v -8.575873 -9.831754 -10.303892
v -8.228247 -11.223207 -7.557222
v -4.159419 -10.714761 -14.050143
v -0.064152 -11.203994 -14.134407
v -7.306696 -9.798296 -12.992985
v -5.046352 -7.507833 -6.923888
v -6.117922 -9.304322 -7.309585
v -6.136298 -8.156470 -9.440339
v -5.177037 -6.536283 -8.665913
v -4.008356 -6.342909 -10.594780
v -4.832745 -8.106187 -11.819349
v -2.087174 -6.571222 -11.754363
v -2.590331 -8.599752 -13.252866
v -0.064152 -6.864290 -11.840490
v -0.064152 -8.976233 -13.258591
v -0.064152 -12.338192 -4.524217
v -0.064152 -10.518521 -4.962808
v -2.673512 -9.599010 -5.513808
v -3.399644 -11.391154 -5.420567
v -0.064152 -14.235103 -3.380058
v -8.167288 -13.795981 -4.960042
v -12.277974 -11.154077 -10.494159
v -11.936251 -12.577400 -7.318794
v -6.827425 -11.675762 -14.187913
v -0.064152 -12.138556 -14.341634
v -11.006001 -10.837737 -13.182877
v -6.988117 1.034805 -8.195785
v -7.640890 0.818633 -5.695439
v -7.382612 0.590390 -3.124791
v -3.259630 -0.962226 0.163682
v -0.064152 -1.478077 0.493017
v -0.064152 1.020348 -11.807035
v -3.073924 1.103492 -11.396973
v -5.477731 1.169518 -10.217991
v -6.073849 0.012307 -1.101020
v -5.058407 -4.899202 -8.096854
v -0.064152 -9.143657 -5.090772
v -4.875280 -6.091282 -6.474020
v -4.083043 -4.540033 -9.693882
v -2.317613 -4.729792 -10.687488
v -0.064152 -5.072302 -10.848734
v -2.619308 -8.263829 -5.383615
vn 0.4830 0.8446 -0.2312
vn 0.6268 0.6709 0.3963
vn 0.1968 0.6074 -0.7696
vn -0.0329 0.3489 -0.9366
vn 0.2613 -0.9518 -0.1605
vn 0.1961 -0.9332 0.3010
vn 0.6249 -0.7427 -0.2407
vn 0.6262 -0.7587 0.1795
vn 0.1527 0.9782 -0.1406
vn 0.1418 0.8093 -0.5700
vn 0.4961 0.8550 -0.1515
vn 0.4268 0.7374 -0.5236
vn 0.1559 0.9610 0.2285
vn 0.4915 0.8403 0.2288
vn 0.1430 0.7727 0.6185
vn 0.4165 0.7111 0.5665
vn 0.9560 -0.1508 -0.2517
vn 0.7790 -0.1567 -0.6071
vn 0.8840 -0.4039 -0.2354
vn 0.7194 -0.3400 -0.6057
vn 0.9627 0.1554 -0.2213
vn 0.8527 0.4867 -0.1901
vn 0.8022 0.1536 -0.5770
vn 0.7355 0.4198 -0.5318
vn 0.9708 0.1704 0.1688
vn 0.7901 0.1838 0.5848
vn 0.8404 0.5029 0.2019
vn 0.7019 0.4465 0.5550
vn 0.9860 -0.1506 0.0710
vn 0.9080 -0.4165 -0.0452
vn 0.8578 -0.1058 0.5030
vn 0.8700 -0.3596 0.3374
vn 0.1054 -0.0866 0.9906
vn 0.4165 -0.0718 0.9063
vn 0.1158 -0.2378 0.9644
vn 0.4729 -0.2502 0.8448
vn 0.1153 0.1450 0.9827
vn 0.1185 0.4209 0.8993
vn 0.4024 0.1617 0.9011
vn 0.3742 0.4071 0.8332
vn 0.1304 0.1735 -0.9762
vn 0.4390 0.1664 -0.8830
vn 0.1335 0.4587 -0.8785
vn 0.3984 0.4129 -0.8190
vn 0.1291 -0.2070 -0.9698
vn 0.1208 -0.3019 -0.9457
vn 0.4334 -0.1846 -0.8821
vn 0.4241 -0.3132 -0.8497
vn 0.2993 0.9508 -0.0796
vn 0.3029 0.8466 0.4376
vn 0.1170 0.5118 -0.8511
vn 0.0052 0.1862 -0.9825
vn 0.3622 0.3853 0.8488
vn 0.1811 0.3535 0.9177
vn 0.1604 0.0024 0.9870
vn 0.1795 0.1785 0.9674
vn 0.5594 -0.1269 0.8191
vn 0.4467 0.1519 0.8817
vn -0.0231 0.4939 -0.8692
vn -0.0672 0.5691 -0.8195
vn 0.4275 0.4015 -0.8099
vn 0.3322 0.6242 -0.7072
vn 0.9907 0.0520 0.1258
vn 0.8657 0.4244 0.2656
vn 0.8488 0.2169 -0.4822
vn 0.7107 0.5957 -0.3742
vn 0.1720 0.6978 0.6953
vn 0.1154 0.6540 0.7477
vn 0.4411 -0.0885 -0.8931
vn 0.1325 -0.0747 -0.9884
vn 0.4151 0.0109 0.9097
vn 0.1196 -0.0135 0.9927
vn 0.8282 0.0302 0.5596
vn 0.9919 -0.0043 0.1266
vn 0.8025 -0.0824 -0.5909
vn 0.9683 -0.0516 -0.2444
vn 0.7726 -0.2501 -0.5835
vn 0.8783 -0.4288 -0.2116
vn 0.4528 0.0482 -0.8903
vn 0.0581 0.1948 -0.9791
vn 0.7222 -0.6085 0.3289
vn 0.2887 -0.6179 0.7314
vn -0.4830 0.8446 -0.2312
vn -0.6268 0.6709 0.3963
vn -0.1968 0.6074 -0.7696
vn 0.0329 0.3489 -0.9366
vn -0.2613 -0.9518 -0.1605
vn -0.1961 -0.9332 0.3010
vn -0.6249 -0.7427 -0.2407
vn -0.6262 -0.7587 0.1795
vn -0.1527 0.9782 -0.1406
vn -0.1418 0.8093 -0.5700
vn -0.4961 0.8550 -0.1515
vn -0.4268 0.7374 -0.5236
vn -0.1559 0.9610 0.2285
vn -0.4915 0.8403 0.2288
vn -0.1430 0.7727 0.6185
vn -0.4165 0.7111 0.5665
vn -0.9560 -0.1508 -0.2517
vn -0.7790 -0.1567 -0.6071
vn -0.8840 -0.4039 -0.2354
vn -0.7194 -0.3400 -0.6057
vn -0.9627 0.1554 -0.2213
vn -0.8527 0.4867 -0.1901
vn -0.8022 0.1536 -0.5770
vn -0.7355 0.4198 -0.5318
vn -0.9708 0.1704 0.1688
vn -0.7901 0.1838 0.5848
vn -0.8404 0.5029 0.2019
vn -0.7019 0.4465 0.5550
vn -0.9860 -0.1506 0.0710
vn -0.9080 -0.4165 -0.0452
vn -0.8578 -0.1058 0.5030
vn -0.8700 -0.3596 0.3374
vn -0.1054 -0.0866 0.9906
vn -0.4165 -0.0718 0.9063
vn -0.1158 -0.2378 0.9644
vn -0.4729 -0.2502 0.8448
vn -0.1153 0.1450 0.9827
vn -0.1185 0.4209 0.8993
vn -0.4024 0.1617 0.9011
vn -0.3742 0.4071 0.8332
vn -0.1304 0.1735 -0.9762
vn -0.4390 0.1664 -0.8830
vn -0.1335 0.4587 -0.8785
vn -0.3984 0.4129 -0.8190
vn -0.1291 -0.2070 -0.9698
vn -0.1208 -0.3019 -0.9457
vn -0.4334 -0.1846 -0.8821
vn -0.4241 -0.3132 -0.8497
vn -0.2993 0.9508 -0.0796
vn -0.3029 0.8466 0.4376
vn -0.1170 0.5118 -0.8511
vn -0.0052 0.1862 -0.9825
vn -0.3622 0.3853 0.8488
vn -0.1811 0.3535 0.9177
vn -0.1604 0.0024 0.9870
vn -0.1795 0.1785 0.9674
vn -0.5594 -0.1269 0.8191
vn -0.4467 0.1519 0.8817
vn 0.0231 0.4939 -0.8692
vn 0.0672 0.5691 -0.8195
vn -0.4275 0.4015 -0.8099
vn -0.3322 0.6242 -0.7072
vn -0.9907 0.0520 0.1258
vn -0.8657 0.4244 0.2656
vn -0.8488 0.2169 -0.4822
vn -0.7107 0.5957 -0.3742
vn -0.1720 0.6978 0.6953
vn -0.1154 0.6540 0.7477
vn -0.4411 -0.0885 -0.8931
vn -0.1325 -0.0747 -0.9884
vn -0.4151 0.0109 0.9097
vn -0.1196 -0.0135 0.9927
vn -0.8282 0.0302 0.5596
vn -0.9919 -0.0043 0.1266
vn -0.8025 -0.0824 -0.5909
vn -0.9683 -0.0516 -0.2444
vn -0.7726 -0.2501 -0.5835
vn -0.8783 -0.4288 -0.2116
vn -0.4528 0.0482 -0.8903
vn -0.0581 0.1948 -0.9791
vn -0.7222 -0.6085 0.3289
vn -0.2887 -0.6179 0.7314
usemtl Material.000
s off
f 51//1 48//1 42//1 45//1
f 48//2 47//2 43//2 42//2
f 53//3 51//3 45//3 44//3
f 144//4 53//4 44//4 133//4
f 73//5 1//5 2//5 75//5
f 75//6 2//6 28//6 113//6
f 1//7 22//7 23//7 2//7
f 2//8 23//8 38//8 28//8
f 77//9 3//9 4//9 78//9
f 78//10 4//10 35//10 121//10
f 3//11 33//11 32//11 4//11
f 4//12 32//12 39//12 35//12
f 77//13 79//13 5//13 3//13
f 3//14 5//14 34//14 33//14
f 79//15 123//15 36//15 5//15
f 5//16 36//16 40//16 34//16
f 62//17 10//17 11//17 61//17
f 61//18 11//18 25//18 66//18
f 10//19 22//19 21//19 11//19
f 11//20 21//20 37//20 25//20
f 6//21 7//21 12//21 8//21
f 8//22 12//22 32//22 33//22
f 7//23 26//23 27//23 12//23
f 12//24 27//24 39//24 32//24
f 6//25 8//25 13//25 9//25
f 9//26 13//26 31//26 30//26
f 8//27 33//27 34//27 13//27
f 13//28 34//28 40//28 31//28
f 62//29 63//29 14//29 10//29
f 10//30 14//30 23//30 22//30
f 63//31 67//31 29//31 14//31
f 14//32 29//32 38//32 23//32
f 160//33 95//33 16//33 64//33
f 64//34 16//34 29//34 67//34
f 95//35 113//35 28//35 16//35
f 16//36 28//36 38//36 29//36
f 92//37 15//37 17//37 94//37
f 94//38 17//38 36//38 123//38
f 15//39 30//39 31//39 17//39
f 17//40 31//40 40//40 36//40
f 98//41 101//41 19//41 18//41
f 18//42 19//42 27//42 26//42
f 101//43 121//43 35//43 19//43
f 19//44 35//44 39//44 27//44
f 161//45 65//45 20//45 100//45
f 100//46 20//46 24//46 108//46
f 65//47 66//47 25//47 20//47
f 20//48 25//48 37//48 24//48
f 45//49 42//49 57//49 60//49
f 42//50 43//50 58//50 57//50
f 44//51 45//51 60//51 59//51
f 133//52 44//52 59//52 154//52
f 47//53 55//53 41//53 43//53
f 55//54 145//54 128//54 41//54
f 72//55 166//55 146//55 54//55
f 54//56 146//56 145//56 55//56
f 69//57 72//57 54//57 46//57
f 46//58 54//58 55//58 47//58
f 170//59 71//59 52//59 143//59
f 143//60 52//60 53//60 144//60
f 71//61 70//61 50//61 52//61
f 52//62 50//62 51//62 53//62
f 68//63 69//63 46//63 49//63
f 49//64 46//64 47//64 48//64
f 70//65 68//65 49//65 50//65
f 50//66 49//66 48//66 51//66
f 43//67 41//67 56//67 58//67
f 41//68 128//68 149//68 56//68
f 18//69 26//69 66//69 65//69
f 98//70 18//70 65//70 161//70
f 15//71 64//71 67//71 30//71
f 92//72 160//72 64//72 15//72
f 9//73 30//73 67//73 63//73
f 6//74 9//74 63//74 62//74
f 7//75 61//75 66//75 26//75
f 6//76 62//76 61//76 7//76
f 37//77 21//77 68//77 70//77
f 21//78 22//78 69//78 68//78
f 24//79 37//79 70//79 71//79
f 108//80 24//80 71//80 170//80
f 22//81 1//81 72//81 69//81
f 1//82 73//82 166//82 72//82
f 140//83 134//83 130//83 137//83
f 137//84 130//84 131//84 136//84
f 142//85 132//85 134//85 140//85
f 144//86 133//86 132//86 142//86
f 73//87 75//87 76//87 74//87
f 75//88 113//88 112//88 76//88
f 74//89 76//89 106//89 105//89
f 76//90 112//90 125//90 106//90
f 77//91 78//91 81//91 80//91
f 78//92 121//92 120//92 81//92
f 80//93 81//93 117//93 118//93
f 81//94 120//94 126//94 117//94
f 77//95 80//95 82//95 79//95
f 80//96 118//96 119//96 82//96
f 79//97 82//97 122//97 123//97
f 82//98 119//98 127//98 122//98
f 157//99 156//99 88//99 87//99
f 156//100 163//100 109//100 88//100
f 87//101 88//101 104//101 105//101
f 88//102 109//102 124//102 104//102
f 83//103 85//103 89//103 84//103
f 85//104 118//104 117//104 89//104
f 84//105 89//105 111//105 110//105
f 89//106 117//106 126//106 111//106
f 83//107 86//107 90//107 85//107
f 86//108 115//108 116//108 90//108
f 85//109 90//109 119//109 118//109
f 90//110 116//110 127//110 119//110
f 157//111 87//111 91//111 158//111
f 87//112 105//112 106//112 91//112
f 158//113 91//113 114//113 164//113
f 91//114 106//114 125//114 114//114
f 160//115 159//115 96//115 95//115
f 159//116 164//116 114//116 96//116
f 95//117 96//117 112//117 113//117
f 96//118 114//118 125//118 112//118
f 92//119 94//119 97//119 93//119
f 94//120 123//120 122//120 97//120
f 93//121 97//121 116//121 115//121
f 97//122 122//122 127//122 116//122
f 98//123 99//123 102//123 101//123
f 99//124 110//124 111//124 102//124
f 101//125 102//125 120//125 121//125
f 102//126 111//126 126//126 120//126
f 161//127 100//127 103//127 162//127
f 100//128 108//128 107//128 103//128
f 162//129 103//129 109//129 163//129
f 103//130 107//130 124//130 109//130
f 134//131 155//131 151//131 130//131
f 130//132 151//132 152//132 131//132
f 132//133 153//133 155//133 134//133
f 133//134 154//134 153//134 132//134
f 136//135 131//135 129//135 148//135
f 148//136 129//136 128//136 145//136
f 171//137 147//137 146//137 166//137
f 147//138 148//138 145//138 146//138
f 167//139 135//139 147//139 171//139
f 135//140 136//140 148//140 147//140
f 170//141 143//141 141//141 169//141
f 143//142 144//142 142//142 141//142
f 169//143 141//143 139//143 168//143
f 141//144 142//144 140//144 139//144
f 165//145 138//145 135//145 167//145
f 138//146 137//146 136//146 135//146
f 168//147 139//147 138//147 165//147
f 139//148 140//148 137//148 138//148
f 131//149 152//149 150//149 129//149
f 129//150 150//150 149//150 128//150
f 99//151 162//151 163//151 110//151
f 98//152 161//152 162//152 99//152
f 93//153 115//153 164//153 159//153
f 92//154 93//154 159//154 160//154
f 86//155 158//155 164//155 115//155
f 83//156 157//156 158//156 86//156
f 84//157 110//157 163//157 156//157
f 83//158 84//158 156//158 157//158
f 124//159 168//159 165//159 104//159
f 104//160 165//160 167//160 105//160
f 107//161 169//161 168//161 124//161
f 108//162 170//162 169//162 107//162
f 105//163 167//163 171//163 74//163
f 74//164 171//164 166//164 73//164
